# AST/ASF file generated using VICON BodyLanguage
# -----------------------------------------------
:version 1.10
:name VICON
:units
  mass 1.0
  length 0.45
  angle deg
:documentation
   .ast/.asf automatically generated from VICON data using
   VICON BodyBuilder and BodyLanguage model FoxedUp or BRILLIANT.MOD
:root
   order TX TY TZ RX RY RZ
   axis XYZ
   position 0 0 0  
   orientation 0 0 0 
:bonedata
  begin
     id 1 
     name lhipjoint
     direction 0.690799 -0.707083 0.151096 
     length 2.54797 
     axis 0 0 0  XYZ
  end
  begin
     id 2 
     name lfemur
     direction 0.34202 -0.939693 0  
     length 7.21646  
     axis 0 0 20  XYZ
    dof rx ry rz
    limits (-160.0 20.0)
           (-70.0 70.0)
           (-60.0 70.0)
  end
  begin
     id 3 
     name ltibia
     direction 0.34202 -0.939693 0   
     length 8.16759   
     axis 0 0 20   XYZ
    dof rx
    limits (-10.0 170.0)
  end
  begin
     id 4 
     name lfoot
     direction 0.0487203 -0.133858 0.989802   
     length 1.93375   
     axis -90 7.62852e-016 20   XYZ
    dof rx rz
    limits (-45.0 90.0)
           (-70.0 20.0)
  end
  begin
     id 5 
     name ltoes
     direction 1.53453e-011 -4.21783e-011 1   
     length 0.979747   
     axis -90 7.62852e-016 20   XYZ
    dof rx
    limits (-90.0 20.0)
  end
  begin
     id 6 
     name rhipjoint
     direction -0.694693 -0.703425 0.150315   
     length 2.56122  
     axis 0 0 0  XYZ 
  end
  begin
     id 7 
     name rfemur
     direction -0.34202 -0.939693 0   
     length 7.36786   
     axis 0 0 -20   XYZ
    dof rx ry rz
    limits (-160.0 20.0)
           (-70.0 70.0)
           (-70.0 60.0)
  end
  begin
     id 8 
     name rtibia
     direction -0.34202 -0.939693 0   
     length 8.07288   
     axis 0 0 -20   XYZ
    dof rx
    limits (-10.0 170.0)
 end
 begin
     id 9 
     name rfoot
     direction -0.0428397 -0.117701 0.992125   
     length 1.88295  
     axis -90 -7.62852e-016 -20   XYZ
    dof rx rz
    limits (-45.0 90.0)
           (-20.0 70.0)
  end
  begin
     id 10 
     name rtoes
     direction -1.53456e-011 -4.2187e-011 1   
     length 0.955578   
     axis -90 -7.62852e-016 -20   XYZ
    dof rx
    limits (-90.0 20.0)
  end
  begin
     id 11 
     name lowerback
     direction 0.0288145 0.999398 -0.0193241   
     length 1.92149   
     axis 0 0 0   XYZ
    dof rx ry rz
    limits (-20.0 45.0)
           (-30.0 30.0)
           (-30.0 30.0)
  end
  begin
     id 12 
     name upperback
     direction 0.0233784 0.998099 0.0570278   
     length 1.90435   
     axis 0 0 0   XYZ
    dof rx ry rz
    limits (-20.0 45.0)
           (-30.0 30.0)
           (-30.0 30.0)
  end
  begin
     id 13 
     name thorax
     direction 0.0096694 0.997833 0.0650817   
     length 1.9111   
     axis 0 0 0   XYZ
    dof rx ry rz
    limits (-20.0 45.0)
           (-30.0 30.0)
           (-30.0 30.0)
  end
  begin
     id 14 
     name lowerneck
     direction 0.00516803 0.999916 0.0118722   
     length 1.74664   
     axis 0 0 0   XYZ
    dof rx ry rz
    limits (-20.0 45.0)
           (-30.0 30.0)
           (-30.0 30.0)
  end
  begin
     id 15 
     name upperneck
     direction -0.0510851 0.996117 -0.071696   
     length 1.68498   
     axis 0 0 0   XYZ
    dof rx ry rz
    limits (-20.0 45.0)
           (-30.0 30.0)
           (-30.0 30.0)
  end
  begin
     id 16
     name head
     direction -0.019188 0.999436 -0.0275702  
     length 1.83483  
     axis 0 0 0   XYZ
    dof rx ry rz
    limits (-20.0 45.0)
           (-30.0 30.0)
           (-30.0 30.0)
  end
  begin
     id 17 
     name lclavicle
     direction 0.967006 0.248456 -0.0562957  
     length 3.39395  
     axis 0 0 0   XYZ
    dof ry rz
    limits (-20.0 10.0)
           (0.0 20.0)
  end
  begin
     id 18 
     name lhumerus
     direction 1 -4.48962e-011 -5.62711e-019   
     length 5.24318   
     axis 180 -30 -90   XYZ
    dof rx ry rz
    limits (-60.0 90.0)
           (-90.0 90.0)
           (-90.0 90.0)
  end
  begin
     id 19
     name lradius
     direction 1 -4.48966e-011 7.90625e-027   
     length 2.98999   
     axis 180 -30 -90   XYZ
    dof rx
    limits (-10.0 170.0)
  end
  begin
     id 20
     name lwrist
     direction 1 -4.48959e-011 1.61068e-026   
     length 1.49499   
     axis -9.31229e-015 90 90   XYZ
    dof ry
    limits (-180.0 0.0)
 end
  begin
     id 21 
     name lhand
     direction 1 -4.49017e-011 3.22136e-026   
     length 0.726745   
     axis -2.0555e-014 90 90   XYZ
    dof rx rz
    limits (-90.0 90.0)
           (-45.0 45.0)
  end
  begin
     id 22 
     name lfingers
     direction 1 -4.4898e-011 6.44272e-026   
     length 0.58592   
     axis -4.11101e-014 90 90   XYZ
    dof rx
    limits (0.0 90.0)
  end
  begin
     id 23
     name lthumb
     direction 0.707107 -6.34922e-011 0.707107   
     length 0.841268   
     axis -90 45 2.85299e-015   XYZ
    dof rx rz
    limits (-45.0 45.0)
           (-45.0 45.0)
  end
  begin
     id 24 
     name rclavicle
     direction -0.972232 0.230238 0.0419005   
     length 3.40416  
     axis 0 0 0   XYZ 
    dof ry rz
    limits (-10.0 20.0)
           (-20.0 0.0)
  end
  begin
     id 25 
     name rhumerus
     direction -1 -4.48976e-011 2.48487e-027  
     length 5.37045   
     axis 180 30 90   XYZ
    dof rx ry rz
    limits (-90.0 60.0)
           (-90.0 90.0)
           (-90.0 90.0)
  end
  begin
     id 26 
     name rradius
     direction -1 -4.48942e-011 7.87951e-027   
     length 2.92792   
     axis 180 30 90   XYZ
    dof rx
    limits (-10.0 170.0)
  end
  begin
     id 27 
     name rwrist
     direction -1 -4.48969e-011 1.61068e-026   
     length 1.46396   
     axis -9.31229e-015 -90 -90   XYZ
    dof ry
    limits (-180.0 0.0)
  end
  begin
     id 28
     name rhand
     direction -1 -4.49043e-011 3.22136e-026   
     length 0.784497   
     axis -2.0555e-014 -90 -90   XYZ
    dof rx rz
    limits (-90.0 90.0)
           (-45.0 45.0)
  end
  begin
     id 29
     name rfingers
     direction -1 -4.48823e-011 6.44272e-026   
     length 0.632482   
     axis -4.11101e-014 -90 -90   XYZ
    dof rx
    limits (0.0 90.0)
  end
  begin
     id 30
     name rthumb
     direction -0.707107 -6.34923e-011 0.707107   
     length 0.908121   
     axis -90 -45 -2.85299e-015   XYZ
    dof rx rz
    limits (-45.0 45.0)
           (-45.0 45.0)
  end
:hierarchy
  begin
    root lhipjoint rhipjoint lowerback
    lhipjoint lfemur
    lfemur ltibia
    ltibia lfoot
    lfoot ltoes
    rhipjoint rfemur
    rfemur rtibia
    rtibia rfoot
    rfoot rtoes
    lowerback upperback
    upperback thorax
    thorax lowerneck lclavicle rclavicle
    lowerneck upperneck
    upperneck head
    lclavicle lhumerus
    lhumerus lradius
    lradius lwrist
    lwrist lhand lthumb
    lhand lfingers
    rclavicle rhumerus
    rhumerus rradius
    rradius rwrist
    rwrist rhand rthumb
    rhand rfingers
  end

#!OML:ASF E:\Style6\Style6.ASF
:FULLY-SPECIFIED
:DEGREES
1360
root 0.337026 18.2397 0.323864 10.543 -4.05858 -2.89997
lowerback -4.07142 0.398302 2.65949
upperback -5.14522 0.572375 4.49593
thorax -3.04974 0.282224 3.16313
lowerneck -4.75713 -0.204153 4.07268
upperneck 13.7585 0.619534 -9.70429
head 4.92353 -0.0868184 -3.66514
rclavicle -1.35671e-014 -1.27222e-014
rhumerus -23.1517 -32.8556 -51.9691
rradius 63.7385
rwrist 18.9771
rhand -9.36342 3.57319
rfingers 7.12502
rthumb 16.5966 -25.7372
lclavicle -1.35671e-014 -1.27222e-014
lhumerus -39.1045 -3.60675 87.8364
lradius 30.1493
lwrist -13.2885
lhand -3.43829 16.9342
lfingers 7.12502
lthumb 22.2933 45.6682
rfemur -12.2538 13.816 19.8228
rtibia 10.6188
rfoot -2.6548 -16.1191
rtoes -22.2555
lfemur -15.9238 -16.4368 -14.2641
ltibia 20.7561
lfoot -7.83147 21.4065
ltoes -11.936
1361
root 0.336959 18.2437 0.321957 10.515 -3.99359 -2.88156
lowerback -4.02036 0.393272 2.66764
upperback -5.18556 0.570315 4.47587
thorax -3.12006 0.280437 3.13767
lowerneck -4.70801 -0.207216 4.06939
upperneck 13.8028 0.618657 -9.69584
head 4.92853 -0.0864914 -3.6624
rclavicle -8.44835e-015 4.45278e-014
rhumerus -22.9224 -32.2216 -52.0651
rradius 63.8983
rwrist 18.6871
rhand -9.55051 3.44447
rfingers 7.12502
rthumb 16.4165 -25.8809
lclavicle -8.44835e-015 4.45278e-014
lhumerus -39.156 -3.58549 87.7189
lradius 30.3243
lwrist -13.3612
lhand -3.47219 16.9597
lfingers 7.12502
lthumb 22.2607 45.6977
rfemur -12.0982 13.8427 19.8046
rtibia 10.3972
rfoot -2.69552 -16.1702
rtoes -21.7241
lfemur -16.0112 -16.483 -14.2825
ltibia 20.8708
lfoot -7.75248 21.4337
ltoes -11.7922
1362
root 0.336826 18.2466 0.32093 10.504 -3.92708 -2.92954
lowerback -4.02493 0.380518 2.73262
upperback -5.18346 0.552201 4.49314
thorax -3.11449 0.269485 3.11896
lowerneck -4.70319 -0.187685 4.03096
upperneck 13.8016 0.64736 -9.68162
head 4.9295 -0.0733472 -3.6498
rclavicle 1.70458e-014 -1.59028e-014
rhumerus -22.5855 -31.8358 -52.2488
rradius 64.15
rwrist 18.713
rhand -9.22692 3.46729
rfingers 7.12502
rthumb 16.728 -25.832
lclavicle 1.70458e-014 -1.59028e-014
lhumerus -39.1508 -3.71262 87.7019
lradius 30.544
lwrist -13.2142
lhand -3.47306 17.1138
lfingers 7.12502
lthumb 22.2599 45.8519
rfemur -12.0283 13.8921 19.848
rtibia 10.3065
rfoot -2.86975 -16.2165
rtoes -20.4654
lfemur -16.0827 -16.503 -14.2285
ltibia 20.9341
lfoot -7.61784 21.4739
ltoes -11.7163
1363
root 0.335902 18.2423 0.317266 10.516 -3.87593 -2.97474
lowerback -4.08454 0.384344 2.79738
upperback -5.14899 0.550979 4.49815
thorax -3.04464 0.26694 3.08778
lowerneck -4.79903 -0.172504 3.9822
upperneck 13.8411 0.670083 -9.65028
head 4.95987 -0.0658185 -3.6316
rclavicle -5.26779e-015 7.95139e-015
rhumerus -22.194 -31.736 -52.4823
rradius 64.4047
rwrist 18.9762
rhand -8.9785 3.52121
rfingers 7.12502
rthumb 16.9671 -25.7577
lclavicle -5.26779e-015 7.95139e-015
lhumerus -39.1159 -4.0134 87.7735
lradius 30.8273
lwrist -12.8732
lhand -3.63199 17.1742
lfingers 7.12502
lthumb 22.1073 45.9303
rfemur -12.0429 13.9325 19.8851
rtibia 10.2793
rfoot -2.96442 -16.2519
rtoes -19.5241
lfemur -16.1017 -16.4881 -14.1633
ltibia 20.9634
lfoot -7.72337 21.4371
ltoes -11.8341
1364
root 0.335532 18.2395 0.313441 10.4804 -3.78591 -2.98659
lowerback -4.08369 0.391755 2.84526
upperback -5.10658 0.557372 4.46954
thorax -3.00024 0.268145 3.0308
lowerneck -5.0304 -0.186353 3.92471
upperneck 13.9961 0.6536 -9.57172
head 5.04622 -0.0804647 -3.60184
rclavicle -2.18663e-014 -2.06736e-014
rhumerus -21.8882 -31.4637 -52.6742
rradius 64.6036
rwrist 19.0341
rhand -9.08018 3.611
rfingers 7.12502
rthumb 16.8693 -25.6763
lclavicle -2.18663e-014 -2.06736e-014
lhumerus -39.0094 -4.20288 87.7561
lradius 31.0143
lwrist -12.7008
lhand -3.84953 17.0852
lfingers 7.12502
lthumb 21.8985 45.8659
rfemur -12.0101 13.9194 19.9175
rtibia 10.2868
rfoot -2.94837 -16.3163
rtoes -19.7185
lfemur -16.0631 -16.4465 -14.1481
ltibia 20.9779
lfoot -7.91593 21.2956
ltoes -11.6599
1365
root 0.335339 18.2404 0.311379 10.4824 -3.6833 -2.96819
lowerback -4.11618 0.39464 2.84649
upperback -5.11053 0.559189 4.44298
thorax -2.98575 0.268638 3.00263
lowerneck -5.13646 -0.211572 3.86337
upperneck 14.0721 0.6213 -9.51346
head 5.08566 -0.0997223 -3.57674
rclavicle 9.44227e-016 3.97569e-014
rhumerus -21.7335 -30.8784 -52.7887
rradius 64.8283
rwrist 18.8457
rhand -9.30673 3.71099
rfingers 7.12502
rthumb 16.6512 -25.5948
lclavicle 9.44227e-016 3.97569e-014
lhumerus -38.9308 -4.24615 87.6946
lradius 31.1364
lwrist -12.6691
lhand -3.93695 17.1699
lfingers 7.12502
lthumb 21.8145 45.9604
rfemur -12.0451 13.872 19.9117
rtibia 10.3666
rfoot -2.88605 -16.3878
rtoes -20.2886
lfemur -16.0901 -16.455 -14.1503
ltibia 20.9768
lfoot -7.95209 21.2208
ltoes -11.5849
